<?xml version="1.0" standalone="no"?>
<!DOCTYPE svg PUBLIC "-//W3C//DTD SVG 20010904//EN"
 "http://www.w3.org/TR/2001/REC-SVG-20010904/DTD/svg10.dtd">
<svg version="1.0" xmlns="http://www.w3.org/2000/svg"
 width="500.000000pt" height="500.000000pt" viewBox="0 0 500.000000 500.000000"
 preserveAspectRatio="xMidYMid meet">
<metadata>
Created by potrace 1.14, written by Peter Selinger 2001-2017
</metadata>
<g transform="translate(0.000000,500.000000) scale(0.100000,-0.100000)"
fill="#000000" stroke="none">
<path d="M2303 3932 l-533 -2 -1 -28 c-1 -15 -2 -42 -4 -59 -1 -23 3 -34 14
-37 9 -2 300 -3 646 -1 347 2 711 4 809 4 173 1 179 2 163 19 -10 10 -41 29
-70 43 -28 13 -54 27 -57 30 -3 3 -22 12 -43 18 -45 15 -184 17 -924 13z"/>
<path d="M1749 3673 c-4 -12 -8 -30 -7 -40 1 -22 -11 -175 -17 -223 -2 -19 -7
-73 -11 -120 -3 -47 -7 -97 -9 -113 -2 -15 -7 -62 -10 -105 -4 -42 -9 -93 -11
-112 -2 -19 -6 -64 -9 -100 -2 -36 -7 -87 -10 -115 -14 -142 -17 -173 -20
-205 -2 -19 -7 -62 -10 -95 -3 -33 -10 -100 -15 -150 -23 -220 -23 -200 -3
-184 9 8 29 23 43 34 25 20 496 490 582 580 50 54 52 58 63 215 3 47 8 101 10
120 5 39 11 96 20 210 11 134 8 129 73 129 31 1 66 1 77 1 11 0 67 1 125 1 58
0 140 1 182 2 46 2 79 -2 81 -8 5 -13 3 -33 -13 -170 -23 -201 -31 -229 -104
-340 -36 -56 -122 -135 -146 -135 -5 0 -10 -4 -10 -10 0 -5 -5 -10 -11 -10 -6
0 -29 -13 -52 -29 -54 -37 -189 -125 -203 -131 -9 -4 -324 -214 -349 -232 -17
-13 -184 -121 -322 -208 -50 -31 -63 -47 -68 -80 -2 -15 -12 -117 -21 -205 -3
-27 -7 -72 -10 -100 -2 -27 -7 -75 -9 -105 -3 -30 -7 -71 -10 -90 -2 -19 -7
-66 -11 -105 -3 -38 -8 -83 -10 -100 -2 -16 -7 -64 -9 -105 -3 -41 -8 -80 -10
-87 -2 -6 -7 -55 -11 -108 l-7 -97 24 12 c13 7 62 39 109 70 47 32 126 84 175
116 50 32 92 62 93 66 2 4 8 6 13 2 5 -3 12 2 15 10 3 9 11 16 16 16 6 0 39
20 75 45 35 25 67 45 71 45 21 1 41 54 47 121 3 41 8 90 10 109 5 45 17 157
21 195 2 17 6 64 9 105 3 41 7 90 10 108 11 73 28 251 26 279 -1 26 14 32 95
38 121 9 190 16 214 20 14 2 57 7 95 10 39 3 81 7 95 10 14 2 48 7 75 10 103
12 229 39 280 61 166 71 244 117 354 213 191 166 284 371 283 621 -1 134 -13
194 -55 295 -24 58 -81 150 -99 162 -7 4 -411 8 -897 8 l-883 0 -9 -22z"/>
</g>
</svg>
